# xmcd
#
# Track frame offsets:
#	150
#	14878
#	27651
#	43905
#	58824
#	67628
#	86504
#	99819
#	117351
#	132270
#	150095
#	160500
#	173066
#	178623
#	191922
#
# Disc length: 2732 seconds
#
# Revision: 1
# Processed by: cddbd v1.5.1PL2 Copyright (c) Steve Scherf et al.
# Submitted via: audiograbber 1.83.01
#
DISCID=be0aaa0f
DTITLE=The Cowlicks - Psychedelic Service Station
DYEAR=2006
DGENRE=Alternative Country
TTITLE0=Three Thousand Woodchips
TTITLE1=Psychedelic Service Station
TTITLE2=Treehouse
TTITLE3=Shoplifter Hwy 1
TTITLE4=I'll Still Love You
TTITLE5=All
TTITLE6=Daisy Doll
TTITLE7=Sweet Rosette
TTITLE8=A Bunch O' D's
TTITLE9=I Love It When It Rains
TTITLE10=She's A Tease
TTITLE11=Wait
TTITLE12=P.S.S. (reprise)
TTITLE13=Sexy Sadie
TTITLE14=Hand In My Pocket
EXTD=
EXTT0=
EXTT1=
EXTT2=
EXTT3=
EXTT4=
EXTT5=
EXTT6=
EXTT7=
EXTT8=
EXTT9=
EXTT10=
EXTT11=
EXTT12=
EXTT13=
EXTT14=
PLAYORDER=
